<svg xmlns="http://www.w3.org/2000/svg" viewBox="0 0 48 48">
  <path fill="#4285F4" d="M24 9.5c3.94 0 6.61 1.72 8.12 3.16l5.93-5.93C34.59 3.36 29.83 1 24 1 14.73 1 6.91 6.44 3.58 14.08l6.91 5.36C12.33 13.13 17.67 9.5 24 9.5z"></path>
  <path fill="#34A853" d="M46.5 24.5c0-1.55-.14-3.03-.41-4.5H24v8.52h12.7c-.57 2.9-2.3 5.36-4.86 7.02l7.52 5.83c4.38-4.04 6.94-9.98 6.94-16.87z"></path>
  <path fill="#FBBC05" d="M10.49 28.44a14.54 14.54 0 0 1-.81-4.44c0-1.54.29-3.02.81-4.44l-6.91-5.36A22.925 22.925 0 0 0 1 24c0 3.74.9 7.29 2.57 10.47l6.92-5.36z"></path>
  <path fill="#EA4335" d="M24 47c5.83 0 10.73-1.93 14.31-5.28l-7.52-5.83c-2.07 1.39-4.74 2.21-6.79 2.21-6.33 0-11.67-3.63-13.51-8.94l-6.92 5.36C6.91 41.56 14.73 47 24 47z"></path>
</svg>
