<svg aria-hidden="true" style="position: absolute; width: 0; height: 0; overflow: hidden;" version="1.1" xmlns="http://www.w3.org/2000/svg" xmlns:xlink="http://www.w3.org/1999/xlink">
<defs>
<symbol id="EyeClosed" viewBox="0 0 32 32">
<path stroke-linejoin="round" stroke-linecap="round" stroke-miterlimit="4" stroke-width="2.6667" d="M20 24l-0.963-4.333"></path>
<path stroke-linejoin="round" stroke-linecap="round" stroke-miterlimit="4" stroke-width="2.6667" d="M2.667 10.667c2.045 5.489 7.241 9.328 13.333 9.328s11.289-3.839 13.301-9.23l0.032-0.098"></path>
<path stroke-linejoin="round" stroke-linecap="round" stroke-miterlimit="4" stroke-width="2.6667" d="M26.667 20l-2.301-2.733"></path>
<path stroke-linejoin="round" stroke-linecap="round" stroke-miterlimit="4" stroke-width="2.6667" d="M5.333 20l2.301-2.733"></path>
<path stroke-linejoin="round" stroke-linecap="round" stroke-miterlimit="4" stroke-width="2.6667" d="M12 24l0.963-4.333"></path>
</symbol>
<symbol id="EyeOpen" viewBox="0 0 32 32">
<path stroke-linejoin="round" stroke-linecap="round" stroke-miterlimit="4" stroke-width="2.6667" d="M2.749 16.464c-0.053-0.138-0.083-0.297-0.083-0.464s0.031-0.326 0.086-0.473l-0.003 0.009c2.206-5.249 7.306-8.868 13.251-8.868s11.044 3.619 13.215 8.774l0.035 0.094c0.053 0.138 0.083 0.297 0.083 0.464s-0.031 0.326-0.086 0.473l0.003-0.009c-2.206 5.249-7.306 8.868-13.251 8.868s-11.044-3.619-13.215-8.774l-0.035-0.094"></path>
<path stroke-linejoin="round" stroke-linecap="round" stroke-miterlimit="4" stroke-width="2.6667" d="M20 16c0 2.209-1.791 4-4 4s-4-1.791-4-4c0-2.209 1.791-4 4-4s4 1.791 4 4z"></path>
</symbol>
</defs>
</svg>
